<svg width="38" height="38" viewBox="0 0 38 38" fill="none" xmlns="http://www.w3.org/2000/svg">
<g id="mdi-light:cart" clip-path="url(#clip0_0_36)">
<path id="Vector" d="M29.6666 29.5C30.6833 29.5 31.6583 29.9039 32.3772 30.6228C33.0961 31.3416 33.5 32.3167 33.5 33.3333C33.5 34.35 33.0961 35.325 32.3772 36.0439C31.6583 36.7628 30.6833 37.1667 29.6666 37.1667C28.65 37.1667 27.6749 36.7628 26.9561 36.0439C26.2372 35.325 25.8333 34.35 25.8333 33.3333C25.8333 32.3167 26.2372 31.3416 26.9561 30.6228C27.6749 29.9039 28.65 29.5 29.6666 29.5ZM29.6666 31.4167C29.1583 31.4167 28.6708 31.6186 28.3113 31.978C27.9519 32.3375 27.75 32.825 27.75 33.3333C27.75 33.8417 27.9519 34.3292 28.3113 34.6886C28.6708 35.0481 29.1583 35.25 29.6666 35.25C30.175 35.25 30.6625 35.0481 31.0219 34.6886C31.3814 34.3292 31.5833 33.8417 31.5833 33.3333C31.5833 32.825 31.3814 32.3375 31.0219 31.978C30.6625 31.6186 30.175 31.4167 29.6666 31.4167ZM12.4166 29.5C13.4333 29.5 14.4083 29.9039 15.1272 30.6228C15.8461 31.3416 16.25 32.3167 16.25 33.3333C16.25 34.35 15.8461 35.325 15.1272 36.0439C14.4083 36.7628 13.4333 37.1667 12.4166 37.1667C11.4 37.1667 10.4249 36.7628 9.70605 36.0439C8.98716 35.325 8.58329 34.35 8.58329 33.3333C8.58329 32.3167 8.98716 31.3416 9.70605 30.6228C10.4249 29.9039 11.4 29.5 12.4166 29.5ZM12.4166 31.4167C11.9083 31.4167 11.4208 31.6186 11.0613 31.978C10.7019 32.3375 10.5 32.825 10.5 33.3333C10.5 33.8417 10.7019 34.3292 11.0613 34.6886C11.4208 35.0481 11.9083 35.25 12.4166 35.25C12.925 35.25 13.4125 35.0481 13.7719 34.6886C14.1314 34.3292 14.3333 33.8417 14.3333 33.3333C14.3333 32.825 14.1314 32.3375 13.7719 31.978C13.4125 31.6186 12.925 31.4167 12.4166 31.4167ZM33.5 6.5H7.18988L12.0716 18H27.75C28.048 18.0005 28.342 17.931 28.6083 17.7972C28.8746 17.6633 29.1058 17.4689 29.2833 17.2295L35.0333 9.56283H35.0352C35.2478 9.27793 35.3769 8.93953 35.4082 8.58545C35.4395 8.23138 35.3718 7.87557 35.2125 7.55779C35.0532 7.24002 34.8087 6.9728 34.5062 6.786C34.2038 6.5992 33.8554 6.50018 33.5 6.5ZM27.75 19.9167H12.1598L10.6916 22.9067L10.5 23.75C10.5 24.2583 10.7019 24.7458 11.0613 25.1053C11.4208 25.4647 11.9083 25.6667 12.4166 25.6667H33.5V27.5833H12.4166C11.7492 27.5837 11.0932 27.4097 10.5136 27.0787C9.93405 26.7477 9.45095 26.2711 9.11211 25.696C8.77328 25.121 8.59047 24.4674 8.58176 23.8C8.57305 23.1326 8.73875 22.4745 9.06246 21.8908L10.4425 19.0657L3.48113 2.66667H0.916626V0.75H4.74996L6.37721 4.58333H33.5C34.2242 4.5834 34.9336 4.78865 35.5461 5.1753C36.1585 5.56196 36.6488 6.11419 36.9603 6.76805C37.2718 7.42191 37.3917 8.15063 37.3061 8.86981C37.2204 9.589 36.9328 10.2692 36.4765 10.8317L30.8914 18.2798C30.5383 18.7855 30.0682 19.1983 29.5213 19.4833C28.9744 19.7683 28.3667 19.917 27.75 19.9167Z" fill="black"/>
</g>
<defs>
<clipPath id="clip0_0_36">
<rect width="38" height="38" fill="white"/>
</clipPath>
</defs>
</svg>
